<?xml version="1.0" encoding="UTF-8"?>
<svg version="1.1" xmlns="http://www.w3.org/2000/svg" width="512" height="512">
<path d="M0 0 C0.7640213 -0.00524185 1.5280426 -0.0104837 2.31521606 -0.0158844 C3.92025547 -0.0222636 5.52534189 -0.02102125 7.13037109 -0.01245117 C9.55783206 -0.00394996 11.98292735 -0.03274232 14.41015625 -0.06445312 C24.29624233 -0.10841299 31.85140393 0.84755894 40.4453125 6.12109375 C48.27942996 14.17282559 51.01028451 22.66219121 50.99609375 33.6953125 C51.00037888 34.44899612 51.004664 35.20267975 51.00907898 35.97920227 C51.01477788 37.55814617 51.01535566 39.13711631 51.01098633 40.71606445 C51.00780653 43.12561492 51.03140745 45.53395839 51.05664062 47.94335938 C51.0589122 49.48567555 51.05961778 51.02799499 51.05859375 52.5703125 C51.0678035 53.28499191 51.07701324 53.99967133 51.08650208 54.73600769 C51.04586688 59.13646784 50.40233658 61.9346321 47.6953125 65.43359375 C44.84206813 66.86021594 42.86076701 66.74393243 39.6953125 66.43359375 C37.03369141 64.90380859 37.03369141 64.90380859 34.6953125 62.43359375 C34.21388887 59.62304798 34.04221509 57.40197201 34.09375 54.59765625 C34.08574371 53.84068451 34.07773743 53.08371277 34.06948853 52.30380249 C34.04644178 49.88818673 34.05586477 47.47425432 34.0703125 45.05859375 C34.07417026 42.65038864 34.07062423 40.24293062 34.04971313 37.83480835 C34.03770333 36.33894242 34.04016203 34.84286662 34.05941772 33.34707642 C34.03003354 27.82212033 32.72146509 23.88186146 29.1953125 19.62109375 C24.57951221 15.96691852 17.53357394 17.17037164 11.98120117 17.13842773 C10.58754314 17.12691526 9.19392896 17.10647446 7.80053711 17.0769043 C5.77948261 17.03403562 3.75973506 17.01803396 1.73828125 17.0078125 C0.53196045 16.99322998 -0.67436035 16.97864746 -1.91723633 16.96362305 C-5.99858004 17.52986353 -8.11662764 18.86766506 -11.3046875 21.43359375 C-14.94344814 26.89173471 -14.44938702 32.55934371 -14.43840027 38.90927124 C-14.4417986 40.34772319 -14.4417986 40.34772319 -14.44526559 41.81523478 C-14.45159948 45.03096952 -14.45077662 48.24666205 -14.44995117 51.46240234 C-14.45294303 53.76702428 -14.45634562 56.07164571 -14.46012878 58.37626648 C-14.46896994 64.63864006 -14.47130694 70.90099998 -14.47194457 77.16337919 C-14.47289373 82.38961705 -14.47657207 87.61585171 -14.48011667 92.84208834 C-14.48779625 104.4667731 -14.49078524 116.0914512 -14.49011131 127.71613829 C-14.49005138 128.76205511 -14.49005138 128.76205511 -14.48999023 129.82910156 C-14.48992891 130.87629775 -14.48992891 130.87629775 -14.48986635 131.94464941 C-14.48945989 143.25927144 -14.49903012 154.5738602 -14.5131286 165.8884726 C-14.52749611 177.51084513 -14.53421549 189.13319991 -14.53353482 200.7555815 C-14.53327971 207.27882541 -14.5361386 213.80203166 -14.54671288 220.32526779 C-14.55638555 226.45985814 -14.55647869 232.59437474 -14.54919624 238.72896767 C-14.5481494 240.98038783 -14.5505192 243.23181256 -14.5565567 245.48322487 C-14.5642653 248.55688655 -14.55963918 251.63029286 -14.55192566 254.70394897 C-14.55706922 255.59452134 -14.56221279 256.4850937 -14.56751221 257.4026531 C-14.53419396 263.41202769 -14.31094875 268.97430577 -10.3671875 273.80859375 C-5.24149922 277.84701482 1.68302978 276.61959913 7.89160156 276.61889648 C10.05553983 276.62107885 12.21896466 276.63923497 14.3828125 276.65820312 C15.76562326 276.6611382 17.14843644 276.66312223 18.53125 276.6640625 C19.78470215 276.66817139 21.0381543 276.67228027 22.32958984 276.67651367 C25.60522529 276.44009576 27.81011669 275.97472344 30.6953125 274.43359375 C32.02012796 272.03829706 32.02012796 272.03829706 32.6953125 269.43359375 C33.0253125 268.44359375 33.3553125 267.45359375 33.6953125 266.43359375 C33.78926163 264.04596619 33.81996049 261.65572582 33.81988525 259.26625061 C33.8212954 258.53147017 33.82270555 257.79668974 33.82415843 257.03964323 C33.82781639 254.57076193 33.82447279 252.10193788 33.82128906 249.63305664 C33.82268359 247.86572729 33.82458275 246.09839827 33.82695007 244.33106995 C33.83144963 240.5218434 33.83330321 236.71262764 33.83341217 232.90339851 C33.83455115 226.88254685 33.8473788 220.86175668 33.86297607 214.84092712 C33.86554893 213.82544912 33.86812178 212.80997111 33.8707726 211.76372105 C33.87603916 209.68713946 33.88132465 207.61055793 33.88662863 205.53397644 C33.92176609 191.51425923 33.94828759 177.4946184 33.94580078 163.47485352 C33.94421402 154.02109969 33.96020388 144.5675553 33.99650741 135.11386865 C34.0149976 130.10916623 34.02428357 125.10481362 34.01203156 120.1000843 C34.00062289 115.39428733 34.01223238 110.68911752 34.04166603 105.98340416 C34.04832455 104.25481934 34.04640922 102.52617743 34.03536797 100.79761505 C34.02155774 98.44029426 34.03831548 96.08510895 34.06280518 93.72792053 C34.06427174 92.40812226 34.0657383 91.08832399 34.0672493 89.72853184 C34.6953125 86.43359375 34.6953125 86.43359375 37.04343796 84.00504208 C40.27082643 82.09255559 42.00104221 81.88338328 45.6953125 82.43359375 C48.8312282 84.2134378 49.53633986 84.95667582 50.6953125 88.43359375 C50.77741042 90.20673226 50.80277544 91.9828015 50.79296875 93.7578125 C50.79047119 94.68424561 50.78797363 95.61067871 50.78540039 96.56518555 C50.77629639 97.73863525 50.76719238 98.91208496 50.7578125 100.12109375 C50.7371875 103.85421875 50.7165625 107.58734375 50.6953125 111.43359375 C62.2453125 111.43359375 73.7953125 111.43359375 85.6953125 111.43359375 C85.53829773 103.65590301 85.53829773 103.65590301 85.33496094 95.87939453 C85.25002845 87.46148948 86.61949311 80.79374886 91.51953125 73.84765625 C98.87360739 66.78650977 106.38249384 63.28719727 116.6953125 63.43359375 C123.02948889 64.11751645 128.14204184 66.40453703 133.6953125 69.43359375 C134.09621094 68.9746875 134.49710938 68.51578125 134.91015625 68.04296875 C141.44733597 60.98696524 148.23087778 57.91934991 157.84765625 57.32421875 C164.17211673 57.56713356 170.12948966 59.47634681 175.6953125 62.43359375 C176.08460938 61.91410156 176.47390625 61.39460938 176.875 60.859375 C182.30179573 54.09463654 188.50063598 49.84791625 197.1953125 48.49609375 C205.82294875 47.99484024 213.7244082 50.33487518 220.6953125 55.43359375 C222.95276002 57.59329612 225.0037779 59.80010654 226.6953125 62.43359375 C226.6953125 63.09359375 226.6953125 63.75359375 226.6953125 64.43359375 C227.24316406 64.14484375 227.79101562 63.85609375 228.35546875 63.55859375 C236.95106757 59.53333772 245.9322343 58.6700652 255.078125 61.46875 C263.54034944 65.27569057 268.9687986 70.72143739 272.3671875 79.34765625 C274.36060921 85.62761576 274.01694034 91.97605656 273.8828125 98.49609375 C273.8209375 102.76546875 273.7590625 107.03484375 273.6953125 111.43359375 C285.9053125 111.43359375 298.1153125 111.43359375 310.6953125 111.43359375 C310.66050781 105.34148437 310.62570312 99.249375 310.58984375 92.97265625 C310.574504 89.09894867 310.56006132 85.22527886 310.54882812 81.3515625 C310.53093765 75.21134605 310.50983828 69.07126461 310.46899414 62.93115234 C310.4362504 57.97742616 310.41842793 53.02384488 310.41068077 48.07001877 C310.40516412 46.18590389 310.3943918 44.30179639 310.37812233 42.41774368 C310.18312612 18.88761139 310.18312612 18.88761139 317.11328125 10.03125 C323.36679027 3.71597793 330.73146067 0.2687146 339.63301086 0.10440063 C340.36126572 0.10217499 341.08952057 0.09994934 341.83984375 0.09765625 C342.60906662 0.09099945 343.37828949 0.08434265 344.17082214 0.07748413 C345.79199855 0.06740138 347.4132161 0.06266575 349.03442383 0.06298828 C351.49045668 0.05862459 353.94467613 0.02228779 356.40039062 -0.015625 C371.73774707 -0.12707218 371.73774707 -0.12707218 378.6953125 4.43359375 C379.50484375 4.95179687 380.314375 5.47 381.1484375 6.00390625 C387.85304047 11.80484534 391.59682205 18.31072949 392.54077148 27.20141602 C392.82308102 31.27907175 392.79860249 35.34831986 392.7578125 39.43359375 C392.75330078 40.30371094 392.74878906 41.17382812 392.74414062 42.0703125 C392.7324861 44.19143668 392.71455607 46.31252485 392.6953125 48.43359375 C393.72301758 48.4178833 393.72301758 48.4178833 394.77148438 48.40185547 C397.91272224 48.35996523 401.05390107 48.33416338 404.1953125 48.30859375 C405.27296875 48.29183594 406.350625 48.27507812 407.4609375 48.2578125 C416.31339956 48.20383407 423.50942936 48.71755034 430.6953125 54.43359375 C435.39723196 59.65794871 436.94255581 63.15572738 436.96946716 70.20074463 C436.97470384 70.88047105 436.97994052 71.56019746 436.98533589 72.26052165 C437.00033311 74.53734747 437.00104097 76.8139485 437.00170898 79.09082031 C437.00933077 80.72373331 437.0177583 82.35664271 437.02693176 83.98954773 C437.04888425 88.42566387 437.05767689 92.86171108 437.06275821 97.2978754 C437.06640148 100.07058848 437.07264145 102.84328349 437.0797596 105.61598969 C437.10425857 115.29266656 437.11730656 124.9692898 437.12084961 134.64599609 C437.12448324 143.6596835 437.15436507 152.67303006 437.19625419 161.68661332 C437.23097349 169.42944193 437.24639835 177.1721577 437.24709564 184.91506362 C437.24788803 189.53761669 437.25660841 194.15982272 437.28509331 198.78229523 C437.3113015 203.13268207 437.31346403 207.48243489 437.29743767 211.83286476 C437.29562524 213.42595364 437.30229538 215.0190792 437.31825638 216.61208916 C437.40765124 226.11689488 436.96432211 232.80737641 430.2879858 239.93632889 C423.15256482 246.60790047 414.38430308 245.68804752 405.2578125 245.55859375 C404.04931641 245.54957031 402.84082031 245.54054688 401.59570312 245.53125 C398.62869972 245.50779543 395.66211107 245.47497169 392.6953125 245.43359375 C392.71851563 246.67753906 392.74171875 247.92148437 392.765625 249.203125 C393.11769689 275.53439665 393.11769689 275.53439665 383.87109375 285.375 C377.16820053 291.68283075 370.28229142 293.89617972 361.2421875 293.9375 C360.4607135 293.9474852 359.6792395 293.9574704 358.87408447 293.96775818 C357.23039996 293.98284772 355.58662479 293.98998684 353.94287109 293.98950195 C351.46423126 293.99604382 348.98964853 294.05055701 346.51171875 294.10742188 C335.77380849 294.22233499 326.53038894 293.1339854 318.44238281 285.23266602 C309.21490962 274.78390961 310.28945813 261.71702256 310.40234375 248.64453125 C310.40794745 246.73068577 310.41221389 244.81683596 310.41520691 242.90298462 C310.42659475 237.89540472 310.45600903 232.88809089 310.48931885 227.88061523 C310.52015118 222.75898842 310.53374024 217.63731811 310.54882812 212.515625 C310.5808852 202.48814626 310.63360287 192.46093389 310.6953125 182.43359375 C302.7753125 182.43359375 294.8553125 182.43359375 286.6953125 182.43359375 C286.7571875 185.83671875 286.7571875 185.83671875 286.8203125 189.30859375 C286.86541735 204.23346508 282.60696648 213.08429669 272.9453125 224.24609375 C272.43073486 224.84566895 271.91615723 225.44524414 271.38598633 226.06298828 C268.89673283 228.94911297 266.37812862 231.77394438 263.73046875 234.515625 C257.02813678 241.81231027 255.62242055 247.70583546 255.8918457 257.63134766 C256.04663894 263.93038383 256.04663894 263.93038383 253.90625 266.99609375 C250.69318061 269.08515654 248.44523703 268.90233432 244.6953125 268.43359375 C241.5102768 266.67344244 240.86234278 265.93468459 239.6953125 262.43359375 C239.41212412 258.68847631 239.41770687 254.93822806 239.3828125 251.18359375 C239.35380859 250.15878906 239.32480469 249.13398438 239.29492188 248.078125 C239.22148981 239.30016857 241.32965753 234.63014035 247.3828125 228.18359375 C263.26779454 212.1407481 263.26779454 212.1407481 269.82470703 191.72265625 C269.82785919 190.81821777 269.83101135 189.9137793 269.83425903 188.98193359 C269.8322348 188.01723145 269.83021057 187.0525293 269.828125 186.05859375 C269.82908173 185.05650879 269.83003845 184.05442383 269.83102417 183.02197266 C269.83170345 180.90722592 269.82986674 178.79247708 269.82568359 176.67773438 C269.82033182 173.44526475 269.82563715 170.21293407 269.83203125 166.98046875 C269.83137042 164.92317678 269.83008917 162.86588489 269.828125 160.80859375 C269.83116135 159.36154053 269.83116135 159.36154053 269.83425903 157.88525391 C269.83110687 156.98081543 269.82795471 156.07637695 269.82470703 155.14453125 C269.82391144 154.35353027 269.82311584 153.5625293 269.82229614 152.74755859 C269.68436402 150.23408468 269.24267968 147.88779814 268.6953125 145.43359375 C265.25524336 144.28690404 262.56174485 144.28548536 258.93237305 144.2565918 C257.9074173 144.246735 257.9074173 144.246735 256.86175537 144.23667908 C254.60184616 144.21697881 252.3420033 144.20529093 250.08203125 144.1953125 C249.30895945 144.19123697 248.53588764 144.18716145 247.73938942 144.18296242 C243.64763279 144.16211574 239.55590955 144.14780792 235.46411133 144.13842773 C231.24397479 144.12736538 227.02436582 144.09296399 222.8044157 144.05325603 C219.55382831 144.02707743 216.30336641 144.01873484 213.05268288 144.01514626 C211.49738819 144.01028358 209.94209899 143.99867856 208.38690758 143.98010826 C206.20632794 143.95568846 204.02711083 143.95668604 201.84643555 143.96362305 C199.98803291 143.95482368 199.98803291 143.95482368 198.09208679 143.94584656 C194.03560779 144.5283216 191.86860494 145.88768456 188.6953125 148.43359375 C187.16841379 151.33945634 186.77480432 154.16307296 186.6953125 157.43359375 C187.82140334 161.01058819 188.83606264 162.75284717 191.76367188 165.07226562 C195.75814416 166.92712717 199.18685518 166.85604545 203.5390625 166.83984375 C204.38577515 166.85067993 205.23248779 166.86151611 206.1048584 166.87268066 C208.80175471 166.90685635 211.49822838 166.92251842 214.1953125 166.93359375 C217.74780102 166.94818172 221.29934966 166.98188273 224.8515625 167.02734375 C225.66314819 167.02432251 226.47473389 167.02130127 227.31091309 167.01818848 C231.92031959 167.07916782 234.96090239 167.43832231 238.6953125 170.43359375 C240.6953125 173.43359375 240.6953125 173.43359375 240.5703125 176.93359375 C239.6953125 180.43359375 239.6953125 180.43359375 237.98400974 182.12937546 C235.17990128 183.72730177 233.41957485 183.80595147 230.20115662 183.80108643 C229.08405807 183.80665558 227.96695953 183.81222473 226.81600952 183.81796265 C225.59467316 183.80874786 224.37333679 183.79953308 223.11499023 183.79003906 C221.18015022 183.79310562 221.18015022 183.79310562 219.20622253 183.79623413 C215.66853097 183.80136798 212.1311304 183.78782855 208.59348559 183.77070713 C204.88305556 183.7556475 201.17262895 183.7568444 197.46217346 183.75604248 C191.22367407 183.75234895 184.98528462 183.73738552 178.74682617 183.71484375 C170.76647003 183.68606461 162.78620284 183.67562785 154.80580044 183.67116165 C147.92098649 183.667162 141.03619148 183.65465671 134.15139127 183.64081478 C131.95170653 183.63673784 129.75202245 183.63380085 127.55233574 183.63101959 C123.42865549 183.62515684 119.30505092 183.61044933 115.18139648 183.59472656 C113.97422974 183.5936087 112.76706299 183.59249084 111.52331543 183.59133911 C104.52811777 183.5562034 97.6492522 183.20050983 90.6953125 182.43359375 C91.3828738 195.47916479 92.57515954 202.71054461 101.19873047 212.68359375 C104.18899546 216.18020378 107.08888995 219.75244163 110.0078125 223.30859375 C111.19133759 224.74354622 112.37492832 226.17844455 113.55859375 227.61328125 C114.10080566 228.27424805 114.64301758 228.93521484 115.20166016 229.61621094 C116.47724701 231.16826529 117.76298482 232.71196757 119.05078125 234.25390625 C121.7543228 237.83722261 121.82319045 240.76104472 121.83575439 245.11361694 C121.84146454 246.29691086 121.84717468 247.48020477 121.85305786 248.69935608 C121.85473465 250.6490757 121.85473465 250.6490757 121.85644531 252.63818359 C121.86107417 254.01965975 121.86609892 255.40113464 121.87149048 256.78260803 C121.8846091 260.53677812 121.89105826 264.29093033 121.89550114 268.04511976 C121.89843244 270.3904809 121.90253733 272.73583715 121.90700531 275.08119583 C121.92067818 282.41907776 121.93034614 289.75694853 121.9342072 297.09484231 C121.93868904 305.56594837 121.95624358 314.03689317 121.9852078 322.50795019 C122.00681936 329.05580869 122.01691118 335.60362181 122.01824832 342.1515156 C122.01929663 346.06241151 122.02521004 349.97315577 122.04306793 353.88401413 C122.05953986 357.56286742 122.06170854 361.24145494 122.05292892 364.92033195 C122.05179079 366.91249903 122.06551453 368.90465726 122.0796814 370.89677429 C122.07132767 372.68017464 122.07132767 372.68017464 122.06280518 374.49960327 C122.06427174 375.53088034 122.0657383 376.5621574 122.0672493 377.62468529 C121.63392809 380.89717568 120.6327762 382.78308751 118.6953125 385.43359375 C115.60357498 386.97946251 113.10101698 386.72718896 109.6953125 386.43359375 C106.98412729 384.3778528 105.83606798 383.1930817 105.20985031 379.81413841 C105.21655369 378.81315432 105.22325706 377.81217022 105.23016357 376.78085327 C105.22781204 375.62865295 105.22546051 374.47645264 105.22303772 373.28933716 C105.24063644 372.02902679 105.25823517 370.76871643 105.27636719 369.47021484 C105.28073114 368.12626608 105.28322197 366.78231012 105.28398132 365.43835449 C105.28896831 362.54516143 105.30590956 359.65237001 105.33171844 356.75928879 C105.37119372 352.17747436 105.37598382 347.59602912 105.37457275 343.0140686 C105.37584261 329.98523489 105.42344296 316.95678414 105.50634766 303.92822266 C105.55183586 296.73147722 105.56836031 289.53522597 105.55437207 282.33834517 C105.54726004 277.79089438 105.57575717 273.24554039 105.6312871 268.69844508 C105.65752741 265.85700926 105.6500197 263.01637406 105.63340187 260.17489624 C105.63189339 258.24677091 105.67001612 256.31873919 105.70970154 254.39102173 C105.60430339 245.35099901 102.94952351 240.82296597 96.6953125 234.43359375 C95.880625 233.43328125 95.0659375 232.43296875 94.2265625 231.40234375 C93.55625 230.58765625 92.8859375 229.77296875 92.1953125 228.93359375 C91.44894531 228.01835937 90.70257813 227.103125 89.93359375 226.16015625 C88.46598775 224.37239188 86.98460007 222.59583362 85.48828125 220.83203125 C75.21321416 208.5172013 74.55531998 198.25274862 74.6953125 182.43359375 C66.7753125 182.43359375 58.8553125 182.43359375 50.6953125 182.43359375 C50.71102295 184.9864209 50.7267334 187.53924805 50.74291992 190.16943359 C50.79276695 198.63108236 50.82582171 207.09273784 50.85074902 215.55449486 C50.86636366 220.68175437 50.88752482 225.80886266 50.92163086 230.93603516 C50.9543746 235.88976134 50.97219707 240.84334262 50.97994423 245.79716873 C50.98546088 247.68128361 50.9962332 249.56539111 51.01250267 251.44944382 C51.21487028 275.86908053 51.21487028 275.86908053 42.94873047 285.23291016 C34.90623723 293.08719337 25.66314532 294.24251745 14.9765625 294.15625 C14.16960937 294.13965332 13.36265625 294.12305664 12.53125 294.10595703 C10.066385 294.05851816 7.6058354 294.06490277 5.140625 294.078125 C-4.60379513 294.04416526 -12.68984295 293.39451883 -20.890625 287.609375 C-30.39700853 277.70862185 -31.49938984 267.67416651 -31.3671875 254.43359375 C-31.36267578 253.56347656 -31.35816406 252.69335938 -31.35351562 251.796875 C-31.3418611 249.67575082 -31.32393107 247.55466265 -31.3046875 245.43359375 C-32.05041016 245.4493042 -32.79613281 245.46501465 -33.56445312 245.48120117 C-36.97778593 245.54396963 -40.39099681 245.58271714 -43.8046875 245.62109375 C-44.97773437 245.64623047 -46.15078125 245.67136719 -47.359375 245.69726562 C-55.58287845 245.76656481 -62.66478928 245.31992722 -69.1171875 239.62109375 C-69.65988281 239.16089844 -70.20257813 238.70070313 -70.76171875 238.2265625 C-74.69681154 233.65388506 -75.68093348 229.34729917 -75.69909668 223.42593384 C-75.70518778 222.74449857 -75.71127889 222.0630633 -75.71755457 221.36097848 C-75.73412979 219.09025233 -75.72941683 216.82009032 -75.72460938 214.54931641 C-75.73195293 212.91610637 -75.74054 211.28290152 -75.75027466 209.64970398 C-75.77246972 205.22193132 -75.77542234 200.79434487 -75.77352715 196.36652422 C-75.77340735 192.66630671 -75.78197536 188.96612851 -75.79030466 185.26592195 C-75.80953167 176.53402539 -75.81242518 167.80222443 -75.80566406 159.0703125 C-75.7990242 150.07133628 -75.82188698 141.07277005 -75.85897779 132.07387698 C-75.88969643 124.3394884 -75.90103246 116.60523156 -75.89714098 108.87078321 C-75.89507564 104.25498373 -75.90051928 99.6395033 -75.92503357 95.02376175 C-75.94733391 90.68153245 -75.94539588 86.33996861 -75.92510605 81.99773598 C-75.92170174 80.40787932 -75.92676018 78.81797757 -75.94108963 77.22818184 C-76.07216652 61.60250029 -76.07216652 61.60250029 -70.3046875 55.43359375 C-63.97207332 49.56434158 -57.98882464 48.29013065 -49.46875 48.3359375 C-48.40527344 48.33916016 -47.34179688 48.34238281 -46.24609375 48.34570312 C-44.60447266 48.35827148 -44.60447266 48.35827148 -42.9296875 48.37109375 C-41.81207031 48.37560547 -40.69445313 48.38011719 -39.54296875 48.38476562 C-36.79681946 48.39650131 -34.05078164 48.41292012 -31.3046875 48.43359375 C-31.32789063 47.18964844 -31.35109375 45.94570312 -31.375 44.6640625 C-31.72707189 18.33279085 -31.72707189 18.33279085 -22.48046875 8.4921875 C-15.81908633 2.22342094 -8.99346138 -0.03693582 0 0 Z M329.4453125 21.93359375 C327.16577461 25.19007644 326.57072285 27.63279419 326.56109142 31.51294231 C326.55663358 32.34651341 326.55217574 33.18008451 326.54758281 34.03891534 C326.54776717 34.9546565 326.54795153 35.87039766 326.54814148 36.81388855 C326.54446479 37.78677631 326.5407881 38.75966407 326.537 39.76203328 C326.5259468 43.03691744 326.52211654 46.31176989 326.51831055 49.58666992 C326.51204714 51.92878318 326.50540045 54.27089543 326.49839783 56.61300659 C326.48097688 62.9871263 326.47043308 69.3612385 326.4621923 75.73537612 C326.45704449 79.71632439 326.45096866 83.69727032 326.44468117 87.67821693 C326.42766917 98.70236854 326.41317547 109.72651916 326.40593243 120.75068188 C326.40402256 123.61121306 326.40210223 126.47174424 326.40014648 129.33227539 C326.39966274 130.04323733 326.399179 130.75419928 326.3986806 131.48670552 C326.39038206 143.00127693 326.36504802 154.51574439 326.33256581 166.03027042 C326.29948119 177.85485587 326.28148238 189.67938853 326.27828819 201.50402051 C326.27612433 208.14194663 326.26695017 214.77973848 326.24182701 221.41762352 C326.21857149 227.66305173 326.21430313 233.90820719 326.22458839 240.15366745 C326.22508447 242.44498793 326.21874297 244.73632173 326.20503235 247.02760124 C326.1873488 250.15818837 326.19440287 253.28779298 326.20756531 256.41838074 C326.19659606 257.32296829 326.18562682 258.22755584 326.17432517 259.15955514 C326.23390502 265.03783498 327.35507637 269.52773069 330.6953125 274.43359375 C334.53384114 277.72039484 337.83451403 277.81851885 342.7890625 277.83203125 C343.45820679 277.83490143 344.12735107 277.83777161 344.81677246 277.84072876 C346.22535045 277.84276167 347.63395718 277.83728601 349.04248047 277.82470703 C351.18912335 277.80864007 353.33388389 277.82457967 355.48046875 277.84375 C356.85417079 277.84176743 358.22787167 277.83792346 359.6015625 277.83203125 C360.84228516 277.82864746 362.08300781 277.82526367 363.36132812 277.82177734 C368.15665611 277.2634461 370.67295002 275.51275415 373.9453125 272.05859375 C376.84554213 267.70824931 376.82315932 263.4263965 376.86889648 258.2980957 C376.88238632 257.08366287 376.89587616 255.86923004 376.90977478 254.61799622 C376.92021317 253.31577621 376.93065155 252.01355621 376.94140625 250.671875 C376.95691805 249.31616932 376.97312832 247.96047147 376.99000549 246.6047821 C377.0605787 240.860555 377.12109031 235.11625987 377.17211914 229.37182617 C377.20385915 225.85167288 377.24510612 222.33173624 377.29231453 218.81175804 C377.31614533 216.81869651 377.32908486 214.82551446 377.34190369 212.83235168 C377.35854568 211.62737534 377.37518768 210.42239899 377.39233398 209.1809082 C377.40264145 208.116772 377.41294891 207.0526358 377.42356873 205.95625305 C377.6953125 203.43359375 377.6953125 203.43359375 379.6953125 201.43359375 C381.7890625 201.16796875 381.7890625 201.16796875 384.1953125 201.18359375 C384.989375 201.1784375 385.7834375 201.17328125 386.6015625 201.16796875 C388.6953125 201.43359375 388.6953125 201.43359375 390.6953125 203.43359375 C391.71979853 206.48018956 391.88159092 209.4392921 392.01171875 212.63671875 C392.05361328 213.61640625 392.09550781 214.59609375 392.13867188 215.60546875 C392.17798828 216.62125 392.21730469 217.63703125 392.2578125 218.68359375 C392.30099609 219.71484375 392.34417969 220.74609375 392.38867188 221.80859375 C392.49456932 224.35013245 392.59664693 226.89176571 392.6953125 229.43359375 C396.61183882 229.52073691 400.52811561 229.5740336 404.4453125 229.62109375 C405.55648437 229.64623047 406.66765625 229.67136719 407.8125 229.69726562 C408.88242187 229.70693359 409.95234375 229.71660156 411.0546875 229.7265625 C412.53146973 229.75012817 412.53146973 229.75012817 414.03808594 229.77416992 C417.14534347 229.37591337 418.46868234 228.60713321 420.6953125 226.43359375 C421.78762375 223.15665999 421.82658284 220.74817891 421.83575439 217.29800415 C421.84146454 216.01374039 421.84717468 214.72947662 421.85305786 213.40629578 C421.8543032 211.98001108 421.8554283 210.55372628 421.85644531 209.12744141 C421.86107381 207.62774025 421.86609851 206.12804028 421.87149048 204.62834167 C421.8846125 200.55186778 421.89105892 196.47541035 421.89550114 192.39891863 C421.89843187 189.85254602 421.90253666 187.30617792 421.90700531 184.75980759 C421.92067904 176.79401693 421.93034659 168.82823656 421.9342072 160.86243498 C421.93868934 151.66460794 421.95624494 142.4669294 421.9852078 133.26914752 C422.00681507 126.16078436 422.01691095 119.05246301 422.01824832 111.94406736 C422.01929693 107.69782833 422.02521678 103.45172892 422.04306793 99.20552444 C422.05953241 95.21149958 422.06171211 91.21771955 422.05292892 87.22367287 C422.0521577 85.75833671 422.0565125 84.29298749 422.06638718 82.8276844 C422.07908344 80.82621306 422.07144661 78.82464359 422.06280518 76.82315063 C422.06427174 75.70338144 422.0657383 74.58361225 422.0672493 73.42991066 C421.6443289 70.02287072 420.78100013 68.14406228 418.6953125 65.43359375 C415.63611862 64.41386246 413.57113225 64.31825773 410.37109375 64.3359375 C409.34306641 64.33916016 408.31503906 64.34238281 407.25585938 64.34570312 C405.64807617 64.35827148 405.64807617 64.35827148 404.0078125 64.37109375 C402.92435547 64.37560547 401.84089844 64.38011719 400.72460938 64.38476562 C398.04812165 64.39655632 395.37174473 64.41301312 392.6953125 64.43359375 C392.69200235 65.0062028 392.68869221 65.57881186 392.68528175 66.1687727 C392.60403125 80.10709956 392.51180726 94.04531669 392.40778542 107.98349285 C392.35768178 114.72391685 392.31123866 121.46432883 392.2734375 128.20483398 C392.23695569 134.70824147 392.19024038 141.21152856 392.13724899 147.71482277 C392.11869839 150.19752512 392.10359291 152.68025566 392.09196854 155.16300011 C392.07511781 158.63704296 392.04608483 162.11078435 392.01416016 165.5847168 C392.01199997 166.61402313 392.00983978 167.64332947 392.00761414 168.7038269 C391.99645065 169.65308548 391.98528717 170.60234406 391.9737854 171.58036804 C391.96548926 172.81234437 391.96548926 172.81234437 391.95702553 174.0692091 C391.64948051 176.84765208 390.95799737 178.94118293 389.6953125 181.43359375 C386.29502488 183.17151853 384.58008432 183.6891945 380.8828125 182.62109375 C378.6953125 181.43359375 378.6953125 181.43359375 377.6953125 180.43359375 C377.59081542 178.50058319 377.5573148 176.56372037 377.55055237 174.62789917 C377.54365387 173.36610336 377.53675537 172.10430756 377.52964783 170.80427551 C377.52693281 169.39279189 377.52429568 167.98130812 377.52172852 166.56982422 C377.51542672 165.09336653 377.50866134 163.61691075 377.50146484 162.14045715 C377.48676515 158.95272086 377.47505228 155.76499205 377.46551704 152.57723618 C377.45009285 147.53445728 377.4261418 142.49174171 377.40061951 137.44900513 C377.3293484 123.1063436 377.26970861 108.76364512 377.21850586 94.42089844 C377.19017346 86.50572944 377.15477202 78.59062274 377.11185211 70.67551911 C377.0851133 65.66558109 377.06718686 60.65571361 377.05581486 55.64571834 C377.04666648 52.52165781 377.02929332 49.39768252 377.00963593 46.2736721 C377.00218355 44.82854876 376.99808076 43.38340352 376.99764061 41.93826103 C376.99655148 39.95921146 376.98209676 37.98018291 376.96705627 36.00119019 C376.96282434 34.89541563 376.9585924 33.78964108 376.95423222 32.6503582 C376.61153212 28.39272386 376.03493082 24.05715291 373.2578125 20.69140625 C366.74368429 15.96866329 361.81298901 16.21517605 354.00170898 16.19335938 C351.90112339 16.18367814 349.80152675 16.15266691 347.70117188 16.12109375 C346.3593808 16.11456089 345.01758273 16.10931153 343.67578125 16.10546875 C342.45785889 16.09612305 341.23993652 16.08677734 339.98510742 16.07714844 C335.14418486 16.60165656 332.6560012 18.36616186 329.4453125 21.93359375 Z M-59.3046875 67.43359375 C-60.39699875 70.71052751 -60.43595784 73.11900859 -60.44512939 76.56918335 C-60.45083954 77.85344711 -60.45654968 79.13771088 -60.46243286 80.46089172 C-60.4636782 81.88717642 -60.4648033 83.31346122 -60.46582031 84.73974609 C-60.47044881 86.23944725 -60.47547351 87.73914722 -60.48086548 89.23884583 C-60.4939875 93.31531972 -60.50043392 97.39177715 -60.50487614 101.46826887 C-60.50780687 104.01464148 -60.51191166 106.56100958 -60.51638031 109.10737991 C-60.53005404 117.07317057 -60.53972159 125.03895094 -60.5435822 133.00475252 C-60.54806434 142.20257956 -60.56561994 151.4002581 -60.5945828 160.59803998 C-60.61619007 167.70640314 -60.62628595 174.81472449 -60.62762332 181.92312014 C-60.62867193 186.16935917 -60.63459178 190.41545858 -60.65244293 194.66166306 C-60.66890741 198.65568792 -60.67108711 202.64946795 -60.66230392 206.64351463 C-60.6615327 208.10885079 -60.6658875 209.57420001 -60.67576218 211.0395031 C-60.68845844 213.04097444 -60.68082161 215.04254391 -60.67218018 217.04403687 C-60.67364674 218.16380606 -60.6751133 219.28357525 -60.6766243 220.43727684 C-60.25630093 223.82339518 -59.3238542 225.70720209 -57.3046875 228.43359375 C-49.54725379 232.31231061 -39.97776205 229.43359375 -31.3046875 229.43359375 C-31.3046875 174.98359375 -31.3046875 120.53359375 -31.3046875 64.43359375 C-51.9894566 62.46136002 -51.9894566 62.46136002 -59.3046875 67.43359375 Z M193.6953125 66.43359375 C190.75553099 69.13970032 187.85281636 72.30983098 187.54814148 76.41802979 C187.53829727 77.23044128 187.52845306 78.04285278 187.51831055 78.87988281 C187.50547531 79.80134094 187.49264008 80.72279907 187.47941589 81.67218018 C187.47202896 82.67110291 187.46464203 83.67002563 187.45703125 84.69921875 C187.4489595 85.72537292 187.44088776 86.7515271 187.43257141 87.80877686 C187.41872361 89.98431709 187.40800458 92.15987911 187.40014648 94.33544922 C187.38295357 97.65634617 187.33907528 100.9762426 187.29492188 104.296875 C187.28479331 106.41014893 187.27627772 108.52343132 187.26953125 110.63671875 C187.25202316 111.62754456 187.23451508 112.61837036 187.21647644 113.63922119 C187.23475802 119.47611251 187.57416009 123.12213831 191.6953125 127.43359375 C193.88451758 128.24623577 193.88451758 128.24623577 196.2421875 128.01953125 C197.08652344 128.00019531 197.93085938 127.98085937 198.80078125 127.9609375 C199.67347656 127.91066406 200.54617188 127.86039063 201.4453125 127.80859375 C202.77755859 127.76798828 202.77755859 127.76798828 204.13671875 127.7265625 C206.3255231 127.65595591 208.50874641 127.55226253 210.6953125 127.43359375 C214.72955314 121.57252717 215.28799682 117.18000231 215.2265625 110.15234375 C215.23230286 108.69387024 215.23230286 108.69387024 215.23815918 107.20593262 C215.24087044 105.15859944 215.23356453 103.11123115 215.21679688 101.06396484 C215.19537633 97.94289398 215.21662568 94.82412487 215.2421875 91.703125 C215.23954408 89.70702621 215.23441882 87.71092883 215.2265625 85.71484375 C215.23465942 84.78861206 215.24275635 83.86238037 215.25109863 82.90808105 C215.16491981 76.90832793 214.19598667 73.3474433 210.6953125 68.43359375 C205.04464179 64.08692398 200.26410814 63.73569554 193.6953125 66.43359375 Z M149.6953125 76.43359375 C144.97949311 81.52171468 144.51912701 84.98823173 144.45703125 91.73046875 C144.4489595 92.55685852 144.44088776 93.38324829 144.43257141 94.23468018 C144.41872879 95.98651023 144.40800743 97.73836727 144.40014648 99.49023438 C144.38296833 102.15938071 144.33908961 104.82727706 144.29492188 107.49609375 C144.28479168 109.19920965 144.2762766 110.90233608 144.26953125 112.60546875 C144.25202316 113.39943054 144.23451508 114.19339233 144.21647644 115.01141357 C144.23698094 120.29515199 145.24869473 123.21055117 148.6953125 127.43359375 C151.77637429 130.41195348 154.41595761 131.26577591 158.6953125 131.43359375 C163.31160609 129.92135964 166.65621939 128.26059989 169.6953125 124.43359375 C171.79545711 120.26025371 172.01651328 116.37635122 172.03125 111.7890625 C172.0379068 111.0604451 172.0445636 110.3318277 172.05142212 109.58113098 C172.06151432 108.04394033 172.0662402 106.50670617 172.06591797 104.96948242 C172.07028009 102.63841063 172.10660107 100.30925158 172.14453125 97.97851562 C172.20268516 90.31089671 172.23589032 83.94398106 167.6953125 77.43359375 C161.72136405 72.56010949 156.27410066 72.77871144 149.6953125 76.43359375 Z M232.05834961 82.56860352 C230.30275235 86.25872241 230.24589527 89.58199952 230.26171875 93.5859375 C230.2564769 94.36369034 230.25123505 95.14144318 230.24583435 95.94276428 C230.23943063 97.5825176 230.24072976 99.22231695 230.24926758 100.86206055 C230.25777489 103.36005118 230.22900124 105.85575077 230.19726562 108.35351562 C230.19565323 109.95182224 230.19623188 111.55013287 230.19921875 113.1484375 C230.18798477 113.88924057 230.17675079 114.63004364 230.16517639 115.39329529 C230.23337491 120.51243053 231.272974 123.60779829 234.6953125 127.43359375 C236.88451758 128.24623577 236.88451758 128.24623577 239.2421875 128.01953125 C240.08652344 128.00019531 240.93085938 127.98085937 241.80078125 127.9609375 C242.67347656 127.91066406 243.54617188 127.86039063 244.4453125 127.80859375 C245.77755859 127.76798828 245.77755859 127.76798828 247.13671875 127.7265625 C249.3255231 127.65595591 251.50874641 127.55226253 253.6953125 127.43359375 C256.99838532 122.38222122 258.29855802 118.65493067 258.2265625 112.55859375 C258.23230286 111.46635498 258.23230286 111.46635498 258.23815918 110.35205078 C258.24086404 108.82257696 258.23360329 107.29305575 258.21679688 105.76367188 C258.19536274 103.43904277 258.21664317 101.11750316 258.2421875 98.79296875 C258.23954397 97.29817035 258.23441845 95.80337385 258.2265625 94.30859375 C258.23465942 93.62297363 258.24275635 92.93735352 258.25109863 92.23095703 C258.14753411 86.82971976 256.63507983 83.8063953 253.6953125 79.43359375 C250.06734744 76.22025327 246.59683709 75.91047222 241.91015625 76.08203125 C237.47603757 76.78585961 234.72638506 79.08881678 232.05834961 82.56860352 Z M106.6953125 82.43359375 C103.30400635 85.79730057 101.88465649 87.31608853 101.08007812 92.06469727 C101.08716797 93.38397217 101.09425781 94.70324707 101.1015625 96.0625 C101.10152222 96.77462143 101.10148193 97.48674286 101.10144043 98.22044373 C101.10677394 99.717284 101.12426388 101.21412563 101.15332031 102.71069336 C101.19526578 104.9935511 101.19437631 107.27346137 101.1875 109.55664062 C101.24444015 117.48213306 101.30320265 122.63031907 106.7578125 128.74609375 C111.04412127 131.20844134 114.86291446 131.08640535 119.6953125 130.43359375 C123.94529234 128.71551679 125.7033909 126.51703303 127.6953125 122.43359375 C129.40056482 117.01816594 128.92066347 111.23799237 128.9453125 105.62109375 C128.9659375 104.45771484 128.9865625 103.29433594 129.0078125 102.09570312 C129.04234096 94.51238957 128.5560139 89.35381419 124.0078125 83.12109375 C118.13781811 78.83758433 112.98020307 78.63894284 106.6953125 82.43359375 Z M50.6953125 127.43359375 C50.6953125 140.63359375 50.6953125 153.83359375 50.6953125 167.43359375 C90.9553125 167.43359375 131.2153125 167.43359375 172.6953125 167.43359375 C171.7053125 162.97859375 171.7053125 162.97859375 170.6953125 158.43359375 C170.68359375 155.2890625 170.68359375 155.2890625 171.0078125 152.62109375 C171.10707031 151.72777344 171.20632812 150.83445313 171.30859375 149.9140625 C171.65310445 147.70432215 172.10728258 145.58970346 172.6953125 143.43359375 C171.82390625 143.67335937 170.9525 143.913125 170.0546875 144.16015625 C161.84384717 146.20398014 154.8265141 147.25532802 146.6953125 144.43359375 C144.19854602 142.92718601 141.96226002 141.35534542 139.73046875 139.48046875 C137.68654018 138.13955026 137.68654018 138.13955026 135.2421875 139.1015625 C132.78219248 140.38815499 130.32434346 141.67474824 127.8828125 142.99609375 C119.61308448 147.11876052 112.56927542 147.03748652 103.6953125 144.43359375 C97.16913646 141.54679987 91.39104423 136.52118751 88.62304688 129.84887695 C86.82066587 127.03227455 86.82066587 127.03227455 83.05004883 126.8659668 C81.542249 126.86721394 80.03429515 126.89472227 78.52734375 126.9453125 C77.47033264 126.9528656 77.47033264 126.9528656 76.39196777 126.96057129 C73.76350125 126.986702 71.1356154 127.05651031 68.5078125 127.12109375 C59.690625 127.27578125 59.690625 127.27578125 50.6953125 127.43359375 Z M271.6953125 127.43359375 C271.6953125 128.09359375 271.6953125 128.75359375 271.6953125 129.43359375 C273.33255604 130.4731921 273.33255604 130.4731921 275.3828125 131.49609375 C280.26720589 134.42326567 282.67923002 138.16409062 284.6953125 143.43359375 C285.81181194 148.50925895 286.00578755 153.63336734 286.2578125 158.80859375 C286.4021875 161.65484375 286.5465625 164.50109375 286.6953125 167.43359375 C294.6153125 167.43359375 302.5353125 167.43359375 310.6953125 167.43359375 C310.6953125 154.23359375 310.6953125 141.03359375 310.6953125 127.43359375 C297.8253125 127.43359375 284.9553125 127.43359375 271.6953125 127.43359375 Z " fill="#6d36e4" transform="translate(75.3046875,62.56640625)"/>
<path d="M0 0 C2.00114892 1.75993025 2.87915047 3.18907468 3.27422905 5.84013367 C3.39947457 8.20769747 3.41662455 10.55684936 3.40405273 12.92773438 C3.41091599 13.82897537 3.41777924 14.73021637 3.42485046 15.6587677 C3.44314913 18.63725546 3.43927694 21.6152181 3.43359375 24.59375 C3.43815374 26.66353528 3.44345876 28.73331904 3.44947815 30.80310059 C3.45841503 35.14076896 3.45597911 39.47825327 3.44604492 43.81591797 C3.43454847 49.3780646 3.4547744 54.93957702 3.48396206 60.50164032 C3.50229533 64.77557417 3.50203743 69.04935519 3.49632454 73.32331848 C3.496171 75.37426138 3.50224174 77.42521442 3.51461601 79.47612 C3.52947163 82.34190855 3.51888931 85.20651443 3.50170898 88.07226562 C3.51137695 88.92121902 3.52104492 89.77017242 3.53100586 90.64485168 C3.48332169 94.43778163 3.44169629 96.38333337 1.18739319 99.53063965 C-2.00375719 101.67426424 -4.24327743 101.46959032 -8 101 C-11.1850357 99.23984869 -11.83296972 98.50109084 -13 95 C-13.11198281 92.15128269 -13.16769172 89.32640195 -13.17700195 86.47705078 C-13.18357315 85.60682281 -13.19014435 84.73659485 -13.19691467 83.83999634 C-13.21663576 80.95843419 -13.22830638 78.07692408 -13.23828125 75.1953125 C-13.24235678 74.21137386 -13.2464323 73.22743523 -13.25063133 72.21368027 C-13.27148497 67.00785278 -13.2857909 61.80205162 -13.29516602 56.59619141 C-13.30624122 51.21689112 -13.34065603 45.83800326 -13.38033772 40.45884895 C-13.40646446 36.32387516 -13.41485425 32.18900034 -13.41844749 28.05395126 C-13.42332206 26.07080163 -13.4349607 24.08765666 -13.45348549 22.10458755 C-13.4777976 19.32997006 -13.4769267 16.55642938 -13.4699707 13.78173828 C-13.48278076 12.96286133 -13.49559082 12.14398438 -13.50878906 11.30029297 C-13.47253197 7.33294192 -13.28380765 5.44505533 -11.09562683 2.01364136 C-7.31875875 -1.61546744 -5.03326584 -1.14793782 0 0 Z " fill="#6d36e4" transform="translate(328,348)"/>
</svg>
