<?xml version="1.0" encoding="UTF-8"?>
<svg version="1.1" xmlns="http://www.w3.org/2000/svg" width="512" height="512">
<path d="M0 0 C5.92717165 3.5817962 10.34345479 8.97733432 12.5625 15.5 C14.72301261 36.38253445 12.19455024 57.10894688 -0.71728516 74.19335938 C-12.64178861 88.81190114 -28.46604602 99.78512369 -47.4375 102.5 C-51.40344971 102.77122098 -55.37144615 102.92449764 -59.34375 103.0703125 C-60.94524902 103.13424194 -60.94524902 103.13424194 -62.57910156 103.19946289 C-65.19844265 103.30347476 -67.81787171 103.40354144 -70.4375 103.5 C-60.665511 131.38382402 -50.84709207 159.24959263 -40.875 187.0625 C-40.46277191 188.21309906 -40.05054382 189.36369812 -39.62582397 190.54916382 C-38.45880644 193.80535284 -37.29030677 197.06100501 -36.12109375 200.31640625 C-35.77608826 201.27860077 -35.43108276 202.24079529 -35.07562256 203.23214722 C-34.75603577 204.12048248 -34.43644897 205.00881775 -34.10717773 205.92407227 C-33.83139389 206.69163345 -33.55561005 207.45919464 -33.27146912 208.25001526 C-32.99625931 208.99251022 -32.7210495 209.73500519 -32.4375 210.5 C-32.00456383 211.83096962 -32.00456383 211.83096962 -31.56288147 213.18882751 C-30.5408853 215.93114904 -30.5408853 215.93114904 -26.76171875 217.0546875 C-25.2204974 217.50979636 -23.67452789 217.94902976 -22.125 218.375 C2.55784233 225.90922078 22.46299513 242.7543737 34.61035156 265.45849609 C36.91914511 270.02262836 38.84869847 274.68263843 40.5625 279.5 C40.78695801 280.1300293 41.01141602 280.76005859 41.24267578 281.40917969 C49.13294412 304.9164872 45.85337526 331.63699381 35.51953125 353.7734375 C33.19322954 358.44523682 30.1598722 362.50947386 26.87109375 366.55859375 C24.05717221 372.8836174 28.28655622 380.96808283 30.6015625 387.1484375 C31.03014053 388.3172496 31.03014053 388.3172496 31.46737671 389.50967407 C32.36869304 391.96680875 33.27727234 394.42115378 34.1875 396.875 C35.10452392 399.35038723 36.01977906 401.82634841 36.92904663 404.30459595 C37.49199641 405.83882936 38.05939414 407.37143978 38.63174438 408.90219116 C39.73342986 411.90353332 40.5625 414.27572418 40.5625 417.5 C41.15804688 417.76167969 41.75359375 418.02335937 42.3671875 418.29296875 C44.68630782 419.56807227 45.98555349 420.80313384 47.6875 422.8125 C48.43386719 423.67294922 48.43386719 423.67294922 49.1953125 424.55078125 C53.46418459 430.63697318 52.93481863 437.08984838 52.93310547 444.25512695 C52.93746602 446.29659286 52.97378866 448.3358708 53.01171875 450.37695312 C53.03775045 459.16265239 52.53739947 464.96403122 46.59765625 471.7421875 C45.94667969 472.28101563 45.29570312 472.81984375 44.625 473.375 C43.97660156 473.92929687 43.32820313 474.48359375 42.66015625 475.0546875 C36.45368423 479.33102762 30.09812693 478.87234863 22.80737305 478.87060547 C20.76590714 478.87496602 18.7266292 478.91128866 16.68554688 478.94921875 C7.89984761 478.97525045 2.09846878 478.47489947 -4.6796875 472.53515625 C-9.98796066 466.12205112 -11.4375 463.18887267 -11.4375 454.5 C-127.5975 454.5 -243.7575 454.5 -363.4375 454.5 C-363.4375 456.81 -363.4375 459.12 -363.4375 461.5 C-365.22511403 468.08594643 -369.94089548 472.71276784 -375.4375 476.5 C-381.17663409 479.2794568 -386.93196792 478.87210234 -393.19262695 478.87060547 C-395.23409286 478.87496602 -397.2733708 478.91128866 -399.31445312 478.94921875 C-408.10015239 478.97525045 -413.90153122 478.47489947 -420.6796875 472.53515625 C-421.21851563 471.88417969 -421.75734375 471.23320312 -422.3125 470.5625 C-422.86679687 469.91410156 -423.42109375 469.26570313 -423.9921875 468.59765625 C-428.26852762 462.39118423 -427.80984863 456.03562693 -427.80810547 448.74487305 C-427.81246602 446.70340714 -427.84878866 444.6641292 -427.88671875 442.62304688 C-427.91280861 433.81771999 -427.28984987 428.25235301 -421.6484375 421.29296875 C-418.09261617 418.18351648 -415.40464376 416.29640844 -410.75 415.3125 C-403.56337286 413.55183172 -398.96265756 407.9623911 -393.87402344 402.90820312 C-392.1252497 401.19390556 -390.30097539 399.5882786 -388.4375 398 C-384.86398314 394.9110278 -381.40037046 391.71159642 -377.9375 388.5 C-373.87735037 384.7344644 -369.78338598 381.02779974 -365.59375 377.40625 C-362.08836509 374.30728653 -358.67367145 371.11031841 -355.2434082 367.92871094 C-351.04260794 364.03965265 -346.78242278 360.22797 -342.4375 356.5 C-344.44271762 353.90064382 -346.42608897 351.51081045 -348.8125 349.25 C-360.86618204 336.6223331 -364.02576552 322.03949491 -363.78125 305.21875 C-363.36824004 294.81089907 -360.1175798 285.57556586 -353.4765625 277.4296875 C-351.99527436 274.67872382 -352.63230977 273.54088333 -353.4375 270.5 C-354.53004746 267.35411386 -355.73876856 264.2568348 -356.953125 261.15625 C-357.49875343 259.74962852 -357.49875343 259.74962852 -358.05540466 258.31459045 C-359.26196596 255.20810028 -360.47466152 252.10404424 -361.6875 249 C-362.52990934 246.834634 -363.37210972 244.66918669 -364.21411133 242.50366211 C-368.88948045 230.49684116 -373.61343423 218.50956545 -378.37109375 206.53515625 C-379.09575333 204.71055374 -379.09575333 204.71055374 -379.83505249 202.84909058 C-382.19494655 196.91001638 -384.55997959 190.97305731 -386.93261719 185.0390625 C-387.79236412 182.88152891 -388.65206697 180.72397776 -389.51171875 178.56640625 C-389.91079941 177.57286636 -390.30988007 176.57932648 -390.72105408 175.55567932 C-391.0808284 174.65115524 -391.44060272 173.74663116 -391.8112793 172.81469727 C-392.12703415 172.02539322 -392.442789 171.23608917 -392.76811218 170.42286682 C-393.4375 168.5 -393.4375 168.5 -393.4375 166.5 C-394.571875 166.54640625 -395.70625 166.5928125 -396.875 166.640625 C-413.03968949 167.11384279 -413.03968949 167.11384279 -418.4375 162.5 C-423.33419006 157.80897093 -427.05640519 153.44961536 -427.72802734 146.48901367 C-427.77726386 142.88813033 -427.80880831 139.28874521 -427.8125 135.6875 C-427.83699219 134.44162109 -427.86148437 133.19574219 -427.88671875 131.91210938 C-427.91321449 123.58803116 -427.21444228 118.07729434 -421.796875 111.51171875 C-414.03034926 105.12130072 -407.35818523 103.97102195 -397.4375 104.5 C-391.54857583 105.12127379 -385.69576247 105.95215851 -379.8359375 106.80078125 C-378.14692141 107.04064458 -376.45784344 107.28007245 -374.76870728 107.51908875 C-371.24643003 108.01932614 -367.72500953 108.5251293 -364.20410156 109.03491211 C-359.71273373 109.68469843 -355.2194482 110.31993186 -350.72540855 110.95094013 C-347.24308287 111.44163634 -343.76193823 111.94033455 -340.28108597 112.4413662 C-338.62539931 112.67867167 -336.96935331 112.91348493 -335.31293869 113.14565468 C-310.82784523 116.58994997 -310.82784523 116.58994997 -302.05078125 127.171875 C-297.9245226 133.71597643 -298.70400425 142.09627724 -299.4375 149.5 C-301.06429397 156.18002272 -305.89665653 160.68228663 -311.4375 164.5 C-315.30063553 166.35511163 -318.3450795 166.73736375 -322.61328125 166.6953125 C-323.77021484 166.68886719 -324.92714844 166.68242187 -326.11914062 166.67578125 C-327.91641602 166.65064453 -327.91641602 166.65064453 -329.75 166.625 C-330.96751953 166.61597656 -332.18503906 166.60695312 -333.43945312 166.59765625 C-336.43900274 166.57413037 -339.43815044 166.54125653 -342.4375 166.5 C-331.2087428 195.54170831 -319.9200873 224.55762389 -308.4375 253.5 C-300.15278181 254.0255947 -291.86783834 254.54742504 -283.58259106 255.06460571 C-279.73438732 255.30493321 -275.88627014 255.54649976 -272.03833008 255.79101562 C-268.31673165 256.02745544 -264.59493333 256.26048686 -260.87298012 256.49127197 C-259.4613329 256.57938203 -258.04975852 256.66866804 -256.63826561 256.75921631 C-252.23937121 257.04093914 -247.8402219 257.28656829 -243.4375 257.5 C-242.36577545 257.55905518 -241.2940509 257.61811035 -240.18984985 257.67895508 C-239.21752411 257.71142334 -238.24519836 257.7438916 -237.2434082 257.77734375 C-236.40904739 257.81077881 -235.57468658 257.84421387 -234.71504211 257.87866211 C-230.00640507 257.09580834 -227.38379162 252.95575454 -224.4375 249.5 C-223.23188191 248.39051956 -222.00224018 247.30657765 -220.75 246.25 C-217.06646169 243.08230236 -213.49757528 239.80465981 -209.9375 236.5 C-205.87753602 232.73426969 -201.78337836 229.02779316 -197.59375 225.40625 C-194.66509638 222.81715042 -191.80351823 220.15805319 -188.9375 217.5 C-184.87735037 213.7344644 -180.78338598 210.02779974 -176.59375 206.40625 C-173.66509638 203.81715042 -170.80351823 201.15805319 -167.9375 198.5 C-163.87735037 194.7344644 -159.78338598 191.02779974 -155.59375 187.40625 C-152.66509638 184.81715042 -149.80351823 182.15805319 -146.9375 179.5 C-142.87735037 175.7344644 -138.78338598 172.02779974 -134.59375 168.40625 C-131.08527127 165.30455141 -127.66727165 162.10502969 -124.23461914 158.91992188 C-120.58846223 155.54323799 -116.89828615 152.23038281 -113.12109375 149 C-111.14723945 147.24139199 -109.30085145 145.37463576 -107.4375 143.5 C-109.38987647 137.72066058 -111.38034374 131.95644203 -113.40673828 126.20263672 C-114.09013828 124.24502432 -114.76312652 122.28374395 -115.42529297 120.31884766 C-116.38111522 117.48863933 -117.37407895 114.6739013 -118.375 111.859375 C-118.80522461 110.54510529 -118.80522461 110.54510529 -119.24414062 109.20428467 C-120.89481333 104.68501347 -122.14137623 102.21234053 -126.55126953 100.0378418 C-127.57101364 99.64184029 -127.57101364 99.64184029 -128.61135864 99.23783875 C-131.15628276 98.20958121 -132.58032683 96.65519725 -134.3125 94.5625 C-134.86679687 93.91410156 -135.42109375 93.26570313 -135.9921875 92.59765625 C-140.47162097 86.09642443 -140.11213728 79.12859083 -139.4375 71.5 C-137.75664417 64.84040667 -132.97371678 60.31452553 -127.4375 56.5 C-123.5813776 54.65645641 -120.48735542 54.24161119 -116.22949219 54.21289062 C-114.99761169 54.19947632 -113.7657312 54.18606201 -112.496521 54.17224121 C-111.84314507 54.16967819 -111.18976913 54.16711517 -110.51659393 54.16447449 C-108.45523426 54.15613207 -106.39430644 54.13557602 -104.33306885 54.11193848 C-99.95127742 54.06384671 -95.56944214 54.03086636 -91.1875 54 C-86.11958612 53.96417598 -81.0518827 53.9219644 -75.98416901 53.86405945 C-73.96759587 53.84420026 -71.95091985 53.83584603 -69.93426514 53.82775879 C-55.22311062 53.67097495 -55.22311062 53.67097495 -43.03125 46.08203125 C-36.92186984 39.17345891 -36.9119625 32.21785904 -36.40234375 23.42382812 C-35.85619214 16.23626685 -34.28050528 10.74430424 -29.47265625 5.2578125 C-28.82167969 4.71898437 -28.17070312 4.18015625 -27.5 3.625 C-26.85160156 3.07070313 -26.20320313 2.51640625 -25.53515625 1.9453125 C-18.47077988 -2.92213491 -7.84396301 -3.47595223 0 0 Z M-16.75 17.3125 C-19.48556493 20.85860268 -19.5468881 23.88513191 -19.67626953 28.25 C-20.07868036 40.53019278 -22.53601589 50.4965905 -31.4375 59.5 C-41.39454682 67.97338091 -50.3336654 69.94067701 -63.24341393 69.91069031 C-65.36739284 69.90615787 -67.49056223 69.9203594 -69.61445618 69.93908691 C-74.88245716 69.98179856 -80.15043532 69.99311333 -85.4185791 70.00531006 C-89.88818126 70.01686711 -94.35740774 70.04048853 -98.8268528 70.08000183 C-100.91083046 70.09350133 -102.99428919 70.08941655 -105.07829285 70.08459473 C-106.35013931 70.09470581 -107.62198578 70.10481689 -108.93237305 70.11523438 C-110.6037458 70.11831604 -110.6037458 70.11831604 -112.30888367 70.12145996 C-115.91610721 70.55790802 -118.33739495 71.63130592 -121.4375 73.5 C-122.85791821 76.34083641 -122.75202272 78.35477278 -122.4375 81.5 C-120.20543569 84.34780619 -118.88757001 85.34997666 -115.4375 86.5 C-113.68655266 86.59785616 -111.93213224 86.63819707 -110.1784668 86.64526367 C-109.10271896 86.65164352 -108.02697113 86.65802338 -106.91862488 86.66459656 C-105.75309586 86.66570938 -104.58756683 86.6668222 -103.38671875 86.66796875 C-102.18118851 86.67129715 -100.97565826 86.67462555 -99.7335968 86.67805481 C-97.17388287 86.68312498 -94.61416231 86.68546311 -92.05444336 86.68530273 C-88.17875877 86.68746994 -84.30336784 86.70557118 -80.42773438 86.72460938 C-77.9348968 86.7275473 -75.44205788 86.72952942 -72.94921875 86.73046875 C-71.80595627 86.73765427 -70.66269379 86.74483978 -69.48478699 86.75224304 C-50.3263456 86.69916102 -33.50636998 83.00835723 -19.4375 69.5 C-8.98665097 58.18340016 -4.7824196 45.64902494 -3.4375 30.5 C-3.3653125 29.69175781 -3.293125 28.88351563 -3.21875 28.05078125 C-3.00960369 23.47570564 -3.99509535 20.35148425 -6.4375 16.5 C-10.23281479 14.60234261 -13.41071965 14.69522621 -16.75 17.3125 Z M-103.4375 102.5 C-95.94982777 125.77249477 -87.59389945 148.73248345 -79.31143188 171.73080444 C-74.68412323 184.58298545 -70.0910286 197.44732428 -65.5 210.3125 C-64.66369353 212.6552056 -63.82734901 214.99789761 -62.9909668 217.34057617 C-61.3117037 222.044219 -59.63259846 226.74791812 -57.95361328 231.45166016 C-54.19923993 241.96925671 -50.44278803 252.48611092 -46.68649292 263.00302124 C-44.60341014 268.83531709 -42.52046188 274.66766097 -40.4375 280.5 C-39.60416731 282.83333356 -38.77083398 285.1666669 -37.9375 287.5 C-36.27083333 292.16666667 -34.60416667 296.83333333 -32.9375 301.5 C-32.5250856 302.6547583 -32.1126712 303.8095166 -31.6877594 304.99926758 C-30.85355625 307.33504048 -30.01935826 309.67081522 -29.18516541 312.0065918 C-27.11518241 317.80261483 -25.04511274 323.59860688 -22.97485352 329.39453125 C-19.06551972 340.33944738 -15.15709931 351.28468764 -11.2515564 362.23095703 C-9.63013118 366.77538848 -8.00829071 371.31967169 -6.38635826 375.86392212 C-5.27927477 378.96579683 -4.17250621 382.06778336 -3.06616211 385.16992188 C-1.84546582 388.59265394 -0.62398609 392.0151055 0.59765625 395.4375 C0.95610123 396.44321045 1.3145462 397.4489209 1.68385315 398.48510742 C3.59690186 403.84181559 5.5491116 409.18016386 7.5625 414.5 C12.1825 414.5 16.8025 414.5 21.5625 414.5 C19.27603283 406.61972231 16.65440119 398.8981986 13.90625 391.16796875 C13.44702374 389.87097647 12.98798845 388.57391655 12.52912903 387.27679443 C11.29915837 383.8020365 10.06605092 380.32839974 8.83218765 376.85502243 C7.79456798 373.93297488 6.75871066 371.01030371 5.72276402 368.0876627 C-2.76799655 344.13572089 -11.33193248 320.21026278 -19.9228363 296.29406738 C-24.42232633 283.76406055 -28.89900376 271.22591446 -33.375 258.6875 C-33.78954437 257.52636688 -34.20408875 256.36523376 -34.63119507 255.16891479 C-36.72811281 249.29545662 -38.82481949 243.42192314 -40.92138672 237.54833984 C-43.42735131 230.5280672 -45.93423854 223.50812429 -48.44140625 216.48828125 C-48.85429398 215.33220871 -49.2671817 214.17613617 -49.69258118 212.98503113 C-51.7636725 207.18615233 -53.83495557 201.38734209 -55.90649414 195.58862305 C-59.78947022 184.71863767 -63.67074909 173.84805448 -67.54608154 162.9753418 C-69.36345935 157.8765201 -71.1819893 152.77810942 -73.00048828 147.6796875 C-73.8616389 145.26449171 -74.72233113 142.84913241 -75.58251953 140.43359375 C-80.09970796 127.74899973 -84.66249863 115.09003578 -89.4375 102.5 C-94.0575 102.5 -98.6775 102.5 -103.4375 102.5 Z M-408.8125 123.25 C-412.76948288 128.72889937 -411.87890306 136.03946429 -411.4375 142.5 C-410.25285381 146.17863818 -409.71944638 147.81982244 -406.31272888 149.62736511 C-402.71913823 150.71802353 -399.33975574 150.78744109 -395.62133789 150.7746582 C-394.46427086 150.7823246 -394.46427086 150.7823246 -393.28382874 150.79014587 C-390.74252491 150.80400742 -388.20149331 150.80308776 -385.66015625 150.80078125 C-383.88805542 150.80466997 -382.11595551 150.80900501 -380.34385681 150.81376648 C-376.63260881 150.82122122 -372.92145595 150.82094275 -369.21020508 150.81567383 C-364.46109914 150.80987914 -359.71238319 150.82681373 -354.96334171 150.8500185 C-351.30441522 150.86477039 -347.64558235 150.86562558 -343.98663139 150.86250877 C-342.23598902 150.86302122 -340.48534131 150.86824455 -338.73472786 150.87832069 C-336.28391499 150.89069662 -333.83385797 150.88388696 -331.38305664 150.87231445 C-330.66442444 150.87995819 -329.94579224 150.88760193 -329.2053833 150.89547729 C-324.56822786 150.84722951 -321.33523831 150.03280741 -317.4375 147.5 C-315.8327947 143.88941307 -315.20461354 141.63855605 -316 137.75 C-318.46316053 133.8946183 -321.52081907 132.70518667 -325.91488647 131.72163391 C-327.26239358 131.51954416 -328.6117614 131.32961572 -329.96240234 131.1496582 C-331.07316887 130.98806717 -331.07316887 130.98806717 -332.20637512 130.82321167 C-334.64397882 130.47148967 -337.0834968 130.13587395 -339.5234375 129.80078125 C-341.22600008 129.55928468 -342.92844207 129.31693662 -344.63076782 129.07377625 C-348.1956221 128.56694056 -351.7614126 128.06756158 -355.328125 127.57397461 C-359.88801459 126.94275379 -364.44577676 126.29752323 -369.00298119 125.64722919 C-372.51809435 125.14645599 -376.03393035 124.65092891 -379.55003738 124.15718651 C-381.23022352 123.92104662 -382.91025702 123.68381788 -384.59012985 123.44545937 C-386.94402884 123.11272313 -389.29874183 122.78651244 -391.65380859 122.4621582 C-392.3407933 122.36401321 -393.02777802 122.26586823 -393.73558044 122.16474915 C-401.66740244 120.75360497 -401.66740244 120.75360497 -408.8125 123.25 Z M-104.1015625 164.00390625 C-104.74867188 164.68324219 -105.39578125 165.36257812 -106.0625 166.0625 C-108.67165758 168.73700321 -111.29194887 171.31393693 -114.125 173.75 C-117.80853831 176.91769764 -121.37742472 180.19534019 -124.9375 183.5 C-128.99746398 187.26573031 -133.09162164 190.97220684 -137.28125 194.59375 C-140.20990362 197.18284958 -143.07148177 199.84194681 -145.9375 202.5 C-149.99764963 206.2655356 -154.09161402 209.97220026 -158.28125 213.59375 C-161.20990362 216.18284958 -164.07148177 218.84194681 -166.9375 221.5 C-170.99764963 225.2655356 -175.09161402 228.97220026 -179.28125 232.59375 C-182.20990663 235.18285224 -185.07139145 237.84204004 -187.9375 240.5 C-193.3546663 245.52105245 -198.82809913 250.45759313 -204.4765625 255.21875 C-206.14527775 256.6281828 -207.79365622 258.06163669 -209.4375 259.5 C-209.4375 259.83 -209.4375 260.16 -209.4375 260.5 C-198.76758328 262.3798032 -198.76758328 262.3798032 -188.54296875 260.0546875 C-185.97181145 257.68063766 -183.73402283 255.14117709 -181.4375 252.5 C-178.98567426 250.11415526 -176.45898522 247.81180218 -173.9375 245.5 C-172.63699109 244.28495541 -171.33749154 243.06882945 -170.0390625 241.8515625 C-166.38577656 238.44195587 -162.67847958 235.09624003 -158.953125 231.765625 C-155.40404367 228.56924741 -151.90011242 225.32493938 -148.39404297 222.08154297 C-144.75068639 218.71130477 -141.09854469 215.35101246 -137.4375 212 C-133.26150344 208.17671051 -129.09601889 204.34229111 -124.9375 200.5 C-121.2164404 197.06291454 -117.49475356 193.62654072 -113.76245117 190.20166016 C-112.27905109 188.83918292 -110.7996397 187.47236708 -109.3203125 186.10546875 C-107.39067659 184.36147531 -105.42610132 182.65541643 -103.4296875 180.98828125 C-102.50414062 180.20839844 -101.57859375 179.42851562 -100.625 178.625 C-99.79355469 177.94695312 -98.96210938 177.26890625 -98.10546875 176.5703125 C-96.14894678 174.61490844 -96.14894678 174.61490844 -96.578125 171.98046875 C-97.32034656 169.83814742 -98.068201 167.75366301 -99 165.6875 C-99.474375 164.635625 -99.94875 163.58375 -100.4375 162.5 C-102.56402316 162.27649907 -102.56402316 162.27649907 -104.1015625 164.00390625 Z M-374.4375 166.5 C-373.57119352 170.83153242 -372.35314024 174.64522485 -370.76171875 178.7265625 C-370.48428833 179.44741028 -370.20685791 180.16825806 -369.92102051 180.91094971 C-368.99334322 183.31733113 -368.05948801 185.72125593 -367.125 188.125 C-366.46836931 189.82042238 -365.81187844 191.51589892 -365.15551758 193.21142578 C-363.71739837 196.92273826 -362.27570618 200.6326422 -360.83203125 204.34179688 C-359.15005229 208.66413238 -357.47369239 212.9886 -355.80078125 217.31445312 C-353.5314861 223.18190698 -351.25460727 229.04636725 -348.9725647 234.90887451 C-348.07332504 237.22184508 -347.17633551 239.53569171 -346.28158569 241.85040283 C-345.02120462 245.10863536 -343.75198208 248.36328613 -342.48046875 251.6171875 C-342.10088013 252.60390442 -341.7212915 253.59062134 -341.3302002 254.60723877 C-340.80166443 255.95190216 -340.80166443 255.95190216 -340.26245117 257.32373047 C-339.80403084 258.50296585 -339.80403084 258.50296585 -339.33634949 259.70602417 C-338.56967697 261.68363483 -338.56967697 261.68363483 -336.4375 262.5 C-333.95932163 261.50503992 -333.95932163 261.50503992 -331.3125 260.0625 C-330.40242188 259.58941406 -329.49234375 259.11632812 -328.5546875 258.62890625 C-327.85601562 258.25636719 -327.15734375 257.88382812 -326.4375 257.5 C-327.14816668 252.94396033 -328.74907643 248.81863876 -330.4375 244.5546875 C-330.74541977 243.76752853 -331.05333954 242.98036957 -331.37059021 242.1693573 C-332.38882653 239.56962214 -333.41306241 236.9722971 -334.4375 234.375 C-335.1488159 232.56318624 -335.85983005 230.75125399 -336.57055664 228.93920898 C-338.4602553 224.12534653 -340.35576191 219.31379344 -342.25323486 214.50299072 C-343.45076624 211.46636025 -344.64714267 208.42927688 -345.84326172 205.39208984 C-348.18464359 199.44789334 -350.52889963 193.50483564 -352.875 187.5625 C-353.24906982 186.61477722 -353.62313965 185.66705444 -354.00854492 184.69061279 C-355.06580166 182.01336024 -356.1244246 179.33665271 -357.18359375 176.66015625 C-357.65749794 175.45990059 -357.65749794 175.45990059 -358.14097595 174.23539734 C-359.67798577 170.31891509 -359.67798577 170.31891509 -361.4375 166.5 C-365.7275 166.5 -370.0175 166.5 -374.4375 166.5 Z M-93.90234375 194.68359375 C-94.61487305 195.35938477 -95.32740234 196.03517578 -96.06152344 196.73144531 C-96.8249707 197.45944336 -97.58841797 198.18744141 -98.375 198.9375 C-103.85557362 204.13189365 -109.35988391 209.28273489 -114.99609375 214.30859375 C-119.63156664 218.46939421 -124.18870484 222.71598171 -128.75976562 226.94726562 C-141.26666789 238.52233816 -153.81783229 250.04789997 -166.4375 261.5 C-159.23806052 266.29962632 -147.94748931 265.7661958 -139.55908203 265.19091797 C-135.24246247 264.23549537 -133.39115593 262.54655852 -130.81298828 259.04248047 C-128.97001431 255.97085719 -127.26068634 252.85346374 -125.63525391 249.66162109 C-116.77872843 233.67799359 -96.46426544 225.07225891 -80.4375 218.5 C-83.03844255 209.35763111 -86.23155239 200.44345255 -89.4375 191.5 C-91.32149366 191.5 -92.61533409 193.45718717 -93.90234375 194.68359375 Z M-102.4375 249.5 C-103.47777344 250.34691406 -103.47777344 250.34691406 -104.5390625 251.2109375 C-109.29114969 255.14431304 -112.9527866 259.41812629 -116.4375 264.5 C-116.1075 265.16 -115.7775 265.82 -115.4375 266.5 C-113.43611054 266.91266036 -113.43611054 266.91266036 -110.99707031 267.00244141 C-110.05228821 267.0623526 -109.1075061 267.12226379 -108.13409424 267.18399048 C-107.10499939 267.23928925 -106.07590454 267.29458801 -105.015625 267.3515625 C-103.43741974 267.44719986 -103.43741974 267.44719986 -101.82733154 267.54476929 C-98.4478512 267.74718266 -95.0677563 267.93603562 -91.6875 268.125 C-89.42182449 268.25956896 -87.15619853 268.3949749 -84.890625 268.53125 C-80.72585794 268.7778516 -76.5610464 269.02310799 -72.39550781 269.25634766 C-71.55691223 269.30360992 -70.71831665 269.35087219 -69.85430908 269.39956665 C-67.37913503 269.50242543 -64.91451229 269.51722305 -62.4375 269.5 C-64.47324983 261.38026062 -67.12610221 253.62302646 -70.125 245.8125 C-70.54072266 244.71744141 -70.95644531 243.62238281 -71.38476562 242.49414062 C-72.39779702 239.8276557 -73.41542743 237.16302947 -74.4375 234.5 C-83.63850843 234.5 -95.88952921 243.64691591 -102.4375 249.5 Z M-23.4375 236.5 C-21.13552622 244.55304454 -18.41101606 252.43506223 -15.60546875 260.32421875 C-15.13151323 261.66243866 -14.65775287 263.00072771 -14.18417358 264.33908081 C-12.92627758 267.89186369 -11.66531384 271.44355013 -10.40361404 274.99498367 C-9.36255905 277.92651321 -8.32330374 280.85867941 -7.2840147 283.79083538 C0.6056554 306.04843104 8.54313751 328.28877022 16.5625 350.5 C20.35986316 345.58484355 22.39879587 340.29788678 24.5625 334.5 C24.88863281 333.63890625 25.21476562 332.7778125 25.55078125 331.890625 C31.67041654 312.28458965 27.79292777 290.82835166 18.62915039 273.00390625 C16.01935807 268.13342135 13.16886593 263.69945529 9.5625 259.5 C9.06621094 258.86191406 8.56992187 258.22382813 8.05859375 257.56640625 C0.33729126 248.02176003 -10.16489506 241.18161931 -21.4375 236.5 C-22.0975 236.5 -22.7575 236.5 -23.4375 236.5 Z M-339.25 286.75 C-346.34428065 296.56650462 -347.59106528 306.71460626 -346.4375 318.5 C-344.18129346 329.27372 -337.6949563 337.6332254 -328.8515625 343.9921875 C-318.49570073 350.46041184 -308.23787559 349.94022127 -296.4375 349.5 C-297.73638352 346.09269625 -299.21368398 342.92804284 -301 339.75 C-301.43441406 338.97140625 -301.86882812 338.1928125 -302.31640625 337.390625 C-303.29867925 335.55630111 -303.29867925 335.55630111 -304.4375 334.5 C-306.49632496 334.20251599 -308.55983332 333.93718682 -310.625 333.6875 C-317.50726514 332.65704063 -321.54992364 330.74645748 -326.1875 325.5625 C-331.27060037 318.64383561 -331.18536428 311.85904004 -330.4375 303.5 C-328.80538567 297.29405629 -324.74354094 292.96381883 -319.4375 289.5 C-312.97894822 286.29269197 -304.86287788 286.33616046 -297.95703125 288.15234375 C-292.23648441 290.73046254 -288.06880808 295.21503715 -285.296875 300.796875 C-283.42227135 306.69335557 -283.20773441 314.18632201 -285.37109375 320.015625 C-286.38260684 321.84964874 -287.40908819 323.67539841 -288.4375 325.5 C-288.08828584 329.10662027 -286.92916204 331.79948071 -285.15234375 334.92578125 C-284.70439453 335.72177734 -284.25644531 336.51777344 -283.79492188 337.33789062 C-283.09206055 338.56282227 -283.09206055 338.56282227 -282.375 339.8125 C-281.90255859 340.64845703 -281.43011719 341.48441406 -280.94335938 342.34570312 C-279.78082244 344.40069265 -278.61207909 346.45187737 -277.4375 348.5 C-248.79911913 346.75886899 -220.1611978 345.0103558 -191.52389488 343.25157887 C-188.14068914 343.04380381 -184.75747955 342.83609149 -181.37426758 342.62841797 C-180.70074943 342.58707398 -180.02723129 342.54573 -179.3333035 342.50313316 C-168.43706293 341.83441632 -157.54051862 341.17077966 -146.64385296 340.50902988 C-135.45748696 339.82957285 -124.27147265 339.14452689 -113.08574432 338.45463836 C-106.80516443 338.06745575 -100.5244528 337.68280097 -94.24334908 337.30420303 C-88.3292359 336.94764548 -82.41557717 336.58431776 -76.50219536 336.21583557 C-74.33401558 336.08191981 -72.16568249 335.95045975 -69.99719238 335.82166672 C-67.03088051 335.64511602 -64.06525281 335.45964245 -61.09962463 335.27200317 C-60.24648589 335.22335558 -59.39334715 335.17470799 -58.51435572 335.12458622 C-52.46577445 334.72831996 -45.93003029 334.24626515 -40.4375 331.5 C-41.10327064 326.15126636 -42.75559951 321.41232406 -44.59765625 316.3828125 C-44.87186401 315.62218506 -45.14607178 314.86155762 -45.42858887 314.07788086 C-46.44678479 311.25819649 -47.47386369 308.44180547 -48.5 305.625 C-49.73837914 302.21368001 -50.97546412 298.8018909 -52.21264648 295.39013672 C-52.82744847 293.69521355 -53.4422693 292.00029721 -54.05711365 290.3053894 C-54.51724243 289.03692627 -54.97737122 287.76846313 -55.4375 286.5 C-103.29164089 283.3289219 -151.14818072 280.19683495 -199.01221466 277.17835808 C-208.71988668 276.56603709 -218.42720296 275.9485484 -228.13415074 275.32484883 C-235.16411866 274.87359309 -242.19444406 274.42819954 -249.22504878 273.98697788 C-253.34748067 273.72811103 -257.46972878 273.46693185 -261.59159088 273.19913292 C-276.02052469 272.26362876 -290.45584512 271.33435629 -304.91699219 271.12426758 C-305.83688557 271.09831607 -306.75677895 271.07236456 -307.70454788 271.04562664 C-320.72582726 271.01105676 -330.98840068 276.94483223 -339.25 286.75 Z M-312.8125 305.125 C-314.92456506 308.21186432 -315.04945145 309.8282913 -314.4375 313.5 C-312.9375 316 -312.9375 316 -310.4375 317.5 C-306.7657913 318.11195145 -305.14936432 317.98706506 -302.0625 315.875 C-299.95043494 312.78813568 -299.82554855 311.1717087 -300.4375 307.5 C-301.9375 305 -301.9375 305 -304.4375 303.5 C-308.1092087 302.88804855 -309.72563568 303.01293494 -312.8125 305.125 Z M-39.0078125 348.37890625 C-43.45001622 349.83097056 -47.66731572 350.11130205 -52.3125 350.4375 C-53.33666016 350.51613281 -54.36082031 350.59476562 -55.41601562 350.67578125 C-63.51475186 351.27535118 -71.61957062 351.75114144 -79.7265625 352.22265625 C-81.91813669 352.35220728 -84.10970567 352.48184662 -86.30126953 352.61157227 C-90.7157333 352.87260164 -95.1307157 353.11948413 -99.54638672 353.35913086 C-101.60386587 353.4785788 -103.66132143 353.59843406 -105.71875 353.71875 C-106.68430817 353.76769913 -107.64986633 353.81664825 -108.64468384 353.86708069 C-109.5257077 353.92061203 -110.40673157 353.97414337 -111.31445312 354.02929688 C-112.08954224 354.07211792 -112.86463135 354.11493896 -113.66320801 354.15905762 C-114.24872437 354.2715686 -114.83424072 354.38407959 -115.4375 354.5 C-115.7675 355.16 -116.0975 355.82 -116.4375 356.5 C-102.96387815 374.29848813 -85.55585691 385.56368225 -63.4375 389.5 C-49.96572065 390.44149219 -37.21171134 390.05047013 -24.4375 385.5 C-23.4475 385.17 -22.4575 384.84 -21.4375 384.5 C-22.16015524 380.27292038 -23.42949644 376.30467057 -24.8359375 372.265625 C-25.07156403 371.58699402 -25.30719055 370.90836304 -25.54995728 370.20916748 C-26.0472838 368.78312437 -26.54661889 367.35778032 -27.04785156 365.93310547 C-27.81362808 363.74677927 -28.56304312 361.55524643 -29.3125 359.36328125 C-29.7984769 357.97621094 -30.28542234 356.5894795 -30.7734375 355.203125 C-31.10642349 354.2172641 -31.10642349 354.2172641 -31.44613647 353.21148682 C-32.14526469 351.1761822 -32.14526469 351.1761822 -33.4375 348.5 C-36.36830839 347.1863047 -36.36830839 347.1863047 -39.0078125 348.37890625 Z M-157.80297852 357.12670898 C-158.89213562 357.19337769 -159.98129272 357.26004639 -161.10345459 357.32873535 C-164.67463371 357.54814672 -168.24551825 357.77199809 -171.81640625 357.99609375 C-174.31402838 358.15084592 -176.81166349 358.30538871 -179.30931091 358.45973206 C-185.19870989 358.82443317 -191.08791294 359.1921831 -196.97704691 359.56113631 C-202.9899256 359.93752948 -209.00311116 360.30885973 -215.01632786 360.67980862 C-220.16979827 360.99813723 -225.32313098 361.31865044 -230.47642326 361.63984871 C-232.93905872 361.79313938 -235.40173162 361.9458296 -237.86444283 362.09789848 C-241.31024002 362.31106326 -244.75584588 362.52709642 -248.20141602 362.74389648 C-249.20998154 362.80575638 -250.21854706 362.86761627 -251.25767517 362.93135071 C-257.00965781 363.29678371 -262.71420361 363.81770417 -268.4375 364.5 C-266.4575 368.46 -264.4775 372.42 -262.4375 376.5 C-260.4265625 375.4790625 -260.4265625 375.4790625 -258.375 374.4375 C-254.00570215 372.51088048 -251.10478442 371.9131233 -246.4375 373.5 C-243.89240333 376.28369948 -243.4375 377.79878835 -243.4375 381.5625 C-245.90774964 388.81885832 -255.86403097 392.28547131 -262.1875 395.75 C-263.32960938 396.3996875 -264.47171875 397.049375 -265.6484375 397.71875 C-272.22130805 401.31494124 -276.90632979 403.59024127 -284.4375 402.5 C-287.28180831 399.73934781 -287.40240449 397.98256331 -287.6875 394.0625 C-285.78810709 388.64923021 -282.33444943 387.32781587 -277.4375 384.5 C-279.7475 379.88 -282.0575 375.26 -284.4375 370.5 C-290.40136482 375.51506814 -296.13302775 380.7692563 -301.86132812 386.04882812 C-303.86993542 387.89814067 -305.88369651 389.7417792 -307.89770508 391.58520508 C-312.58816021 395.8787815 -317.2668498 400.18489141 -321.9375 404.5 C-327.09666582 409.26643717 -332.26778084 414.01950207 -337.44921875 418.76171875 C-339.51833103 420.65584168 -341.58278785 422.55489061 -343.64453125 424.45703125 C-344.1748999 424.94550537 -344.70526855 425.43397949 -345.25170898 425.93725586 C-346.71808681 427.28802999 -348.18330238 428.64006555 -349.6484375 429.9921875 C-351.66560752 431.80594542 -353.69126667 433.54344508 -355.7890625 435.2578125 C-356.66304688 435.99773437 -357.53703125 436.73765625 -358.4375 437.5 C-358.4375 437.83 -358.4375 438.16 -358.4375 438.5 C-243.9275 438.5 -129.4175 438.5 -11.4375 438.5 C-10.7775 435.2 -10.1175 431.9 -9.4375 428.5 C-8.7775 427.18 -8.1175 425.86 -7.4375 424.5 C-8.5701673 416.6971808 -11.12354722 408.6589247 -14.4375 401.5 C-18.38768146 400.18327285 -20.29918953 401.15483489 -24.25 402.375 C-48.89289296 409.92898434 -75.84450461 406.43569346 -98.4375 394.5 C-113.43893383 385.84192865 -125.79385736 374.08036687 -133.9921875 358.80859375 C-136.8068324 356.15131718 -137.20881978 356.21924639 -140.87998962 356.31654358 C-141.77657225 356.33768785 -142.67315487 356.35883213 -143.59690666 356.38061714 C-148.33630786 356.57980203 -153.06886715 356.82623988 -157.80297852 357.12670898 Z M-339.60888672 377.50732422 C-342.06158018 380.18007242 -344.74942659 382.49906147 -347.50708008 384.84985352 C-350.39401927 387.31764433 -353.15970283 389.91090605 -355.9375 392.5 C-360.05502844 396.31957663 -364.2012952 400.0907618 -368.44921875 403.765625 C-372.49146478 407.29167065 -376.45785755 410.90364278 -380.4375 414.5 C-378.46153261 415.81731159 -376.48243255 417.1299381 -374.5 418.4375 C-372.08399436 420.06460584 -369.75679352 421.74174509 -367.4375 423.5 C-366.49390625 422.61699219 -365.5503125 421.73398437 -364.578125 420.82421875 C-356.57156142 413.33779342 -348.52999594 405.89354892 -340.4375 398.5 C-338.43676336 396.66746979 -336.43716394 394.83370058 -334.4375 393 C-333.44011094 392.08593011 -332.44271511 391.17186761 -331.4453125 390.2578125 C-329.41813231 388.39967405 -327.3922301 386.54015521 -325.3671875 384.6796875 C-324.34898187 383.74476603 -323.33075291 382.80986997 -322.3125 381.875 C-321.82104492 381.42334473 -321.32958984 380.97168945 -320.82324219 380.50634766 C-316.6573435 376.68461246 -312.43943053 372.92308956 -308.203125 369.1796875 C-307.62046875 368.62539063 -307.0378125 368.07109375 -306.4375 367.5 C-306.4375 367.17 -306.4375 366.84 -306.4375 366.5 C-322.29564018 362.2424341 -328.98095332 365.34408334 -339.60888672 377.50732422 Z M-409.4375 433.5 C-411.91792417 437.51013822 -411.77132441 441.84422209 -411.75 446.4375 C-411.76611328 447.12779297 -411.78222656 447.81808594 -411.79882812 448.52929688 C-411.8033079 453.25546453 -411.11553486 456.58505143 -408.4375 460.5 C-404.42736178 462.98042417 -400.09327791 462.83382441 -395.5 462.8125 C-394.46456055 462.83666992 -394.46456055 462.83666992 -393.40820312 462.86132812 C-388.68203547 462.8658079 -385.35244857 462.17803486 -381.4375 459.5 C-378.95707583 455.48986178 -379.10367559 451.15577791 -379.125 446.5625 C-379.10888672 445.87220703 -379.09277344 445.18191406 -379.07617188 444.47070312 C-379.0716921 439.74453547 -379.75946514 436.41494857 -382.4375 432.5 C-386.44763822 430.01957583 -390.78172209 430.16617559 -395.375 430.1875 C-396.06529297 430.17138672 -396.75558594 430.15527344 -397.46679688 430.13867188 C-402.19296453 430.1341921 -405.52255143 430.82196514 -409.4375 433.5 Z M6.5625 433.5 C4.08207583 437.51013822 4.22867559 441.84422209 4.25 446.4375 C4.23388672 447.12779297 4.21777344 447.81808594 4.20117188 448.52929688 C4.1966921 453.25546453 4.88446514 456.58505143 7.5625 460.5 C11.57263822 462.98042417 15.90672209 462.83382441 20.5 462.8125 C21.53543945 462.83666992 21.53543945 462.83666992 22.59179688 462.86132812 C27.31796453 462.8658079 30.64755143 462.17803486 34.5625 459.5 C37.04292417 455.48986178 36.89632441 451.15577791 36.875 446.5625 C36.89111328 445.87220703 36.90722656 445.18191406 36.92382812 444.47070312 C36.9283079 439.74453547 36.24053486 436.41494857 33.5625 432.5 C29.55236178 430.01957583 25.21827791 430.16617559 20.625 430.1875 C19.93470703 430.17138672 19.24441406 430.15527344 18.53320312 430.13867188 C13.80703547 430.1341921 10.47744857 430.82196514 6.5625 433.5 Z " fill="#6d36e4" transform="translate(443.4375,17.5)"/>
</svg>
